<svg width="98" height="32" viewBox="0 0 98 32" fill="none" xmlns="http://www.w3.org/2000/svg">
<g clip-path="url(#clip0_676_2158)">
<rect width="32" height="32" rx="12" fill="#5432EE"/>
<g filter="url(#filter0_d_676_2158)">
<path d="M22.2635 -3.58579C23.0446 -4.36684 24.3109 -4.36684 25.0919 -3.58579L33.5772 4.89949C34.3583 5.68054 34.3583 6.94687 33.5772 7.72792L20.4304 20.8748C19.2153 22.0898 17.1349 21.3081 17.0206 19.5936L16.7231 15.1309C16.6564 14.1312 15.8603 13.335 14.8605 13.2684L10.3978 12.9709C8.68333 12.8566 7.90163 10.7761 9.11666 9.56107L22.2635 -3.58579Z" fill="url(#paint0_linear_676_2158)"/>
</g>
</g>
<path d="M93.7549 12.1307C94.1287 11.5216 94.6132 11.044 95.2085 10.6979C95.8176 10.3518 96.5098 10.1787 97.2851 10.1787V13.2313H96.5167C95.603 13.2313 94.9109 13.4459 94.4402 13.875C93.9833 14.3042 93.7549 15.0517 93.7549 16.1177V21.8491H90.8477V10.3448H93.7549V12.1307Z" fill="white"/>
<path d="M86.6064 12.1307C86.9802 11.5216 87.4648 11.044 88.0601 10.6979C88.6692 10.3518 89.3614 10.1787 90.1366 10.1787V13.2313H89.3683C88.4546 13.2313 87.7624 13.4459 87.2917 13.875C86.8349 14.3042 86.6064 15.0517 86.6064 16.1177V21.8491H83.6992V10.3448H86.6064V12.1307Z" fill="white"/>
<path d="M80.281 12.733V18.2982C80.281 18.6858 80.3709 18.9696 80.5509 19.1496C80.7447 19.3157 81.0631 19.3988 81.5062 19.3988H82.8559V21.8492H81.0285C78.5782 21.8492 77.353 20.6586 77.353 18.2774V12.733H75.9824V10.3449H77.353V7.5H80.281V10.3449H82.8559V12.733H80.281Z" fill="white"/>
<path d="M71.2285 22.0362C70.2871 22.0362 69.4426 21.8701 68.695 21.5379C67.9475 21.1918 67.3522 20.728 66.9092 20.1465C66.48 19.5651 66.2447 18.9214 66.2031 18.2153H69.1311C69.1865 18.6583 69.4011 19.0252 69.7749 19.3159C70.1625 19.6066 70.6401 19.752 71.2077 19.752C71.7615 19.752 72.1906 19.6412 72.4952 19.4197C72.8136 19.1982 72.9728 18.9144 72.9728 18.5683C72.9728 18.1946 72.779 17.9177 72.3914 17.7377C72.0176 17.5439 71.4154 17.3362 70.5847 17.1147C69.7264 16.9071 69.0204 16.6925 68.4666 16.471C67.9267 16.2495 67.456 15.9103 67.0545 15.4535C66.6669 14.9966 66.4731 14.3806 66.4731 13.6053C66.4731 12.9685 66.6531 12.3871 67.013 11.861C67.3868 11.3349 67.9129 10.9196 68.5912 10.6151C69.2834 10.3105 70.0933 10.1582 71.0208 10.1582C72.3914 10.1582 73.485 10.5043 74.3018 11.1965C75.1186 11.8748 75.5685 12.7955 75.6516 13.9583H72.869C72.8274 13.5015 72.6336 13.1416 72.2875 12.8785C71.9553 12.6016 71.5054 12.4632 70.9378 12.4632C70.4117 12.4632 70.0033 12.5601 69.7126 12.7539C69.4357 12.9477 69.2972 13.2177 69.2972 13.5638C69.2972 13.9514 69.4911 14.2491 69.8787 14.4567C70.2663 14.6505 70.8685 14.8513 71.6853 15.0589C72.516 15.2666 73.2012 15.4812 73.7411 15.7027C74.2811 15.9242 74.7448 16.2703 75.1325 16.741C75.5339 17.1978 75.7416 17.8069 75.7554 18.5683C75.7554 19.2328 75.5685 19.8281 75.1948 20.3542C74.8348 20.8803 74.3088 21.2956 73.6166 21.6001C72.9382 21.8909 72.1422 22.0362 71.2285 22.0362Z" fill="white"/>
<path d="M59.9348 22.0362C58.8273 22.0362 57.8306 21.794 56.9445 21.3094C56.0585 20.811 55.3594 20.1119 54.8472 19.2121C54.3488 18.3122 54.0996 17.2739 54.0996 16.0972C54.0996 14.9205 54.3557 13.8822 54.8679 12.9823C55.394 12.0825 56.107 11.3903 57.0068 10.9058C57.9067 10.4074 58.9104 10.1582 60.0179 10.1582C61.1254 10.1582 62.1291 10.4074 63.0289 10.9058C63.9288 11.3903 64.6348 12.0825 65.1471 12.9823C65.6731 13.8822 65.9362 14.9205 65.9362 16.0972C65.9362 17.2739 65.6662 18.3122 65.1263 19.2121C64.6002 20.1119 63.8803 20.811 62.9667 21.3094C62.0668 21.794 61.0562 22.0362 59.9348 22.0362ZM59.9348 19.5028C60.4609 19.5028 60.9524 19.3782 61.4092 19.129C61.8799 18.866 62.2537 18.4784 62.5306 17.9661C62.8074 17.4539 62.9459 16.8309 62.9459 16.0972C62.9459 15.0036 62.6552 14.166 62.0737 13.5846C61.5061 12.9893 60.807 12.6916 59.9764 12.6916C59.1457 12.6916 58.4466 12.9893 57.879 13.5846C57.3252 14.166 57.0484 15.0036 57.0484 16.0972C57.0484 17.1909 57.3183 18.0354 57.8582 18.6306C58.412 19.2121 59.1042 19.5028 59.9348 19.5028Z" fill="white"/>
<path d="M44.9072 12.0064C45.281 11.4803 45.7932 11.0442 46.4439 10.6981C47.1084 10.3382 47.8629 10.1582 48.7074 10.1582C49.6903 10.1582 50.5763 10.4005 51.3654 10.885C52.1684 11.3695 52.7983 12.0617 53.2551 12.9616C53.7258 13.8476 53.9612 14.879 53.9612 16.0557C53.9612 17.2324 53.7258 18.2776 53.2551 19.1913C52.7983 20.0912 52.1684 20.7903 51.3654 21.2887C50.5763 21.787 49.6903 22.0362 48.7074 22.0362C47.8629 22.0362 47.1153 21.8632 46.4647 21.5171C45.8278 21.171 45.3087 20.7349 44.9072 20.2088V24.4998H42V10.3451H44.9072V12.0064ZM50.9916 16.0557C50.9916 15.3635 50.8463 14.7682 50.5556 14.2698C50.2787 13.7576 49.9049 13.37 49.4342 13.1069C48.9773 12.8439 48.479 12.7124 47.939 12.7124C47.413 12.7124 46.9146 12.8508 46.4439 13.1277C45.9871 13.3907 45.6133 13.7784 45.3225 14.2906C45.0457 14.8028 44.9072 15.405 44.9072 16.0972C44.9072 16.7894 45.0457 17.3916 45.3225 17.9038C45.6133 18.4161 45.9871 18.8106 46.4439 19.0875C46.9146 19.3505 47.413 19.482 47.939 19.482C48.479 19.482 48.9773 19.3436 49.4342 19.0667C49.9049 18.7898 50.2787 18.3953 50.5556 17.8831C50.8463 17.3709 50.9916 16.7617 50.9916 16.0557Z" fill="white"/>
<defs>
<filter id="filter0_d_676_2158" x="4.52734" y="-4.17188" width="33.6348" height="33.6357" filterUnits="userSpaceOnUse" color-interpolation-filters="sRGB">
<feFlood flood-opacity="0" result="BackgroundImageFix"/>
<feColorMatrix in="SourceAlpha" type="matrix" values="0 0 0 0 0 0 0 0 0 0 0 0 0 0 0 0 0 0 127 0" result="hardAlpha"/>
<feOffset dy="4"/>
<feGaussianBlur stdDeviation="2"/>
<feComposite in2="hardAlpha" operator="out"/>
<feColorMatrix type="matrix" values="0 0 0 0 0.221845 0 0 0 0 0.138683 0 0 0 0 0.600962 0 0 0 1 0"/>
<feBlend mode="normal" in2="BackgroundImageFix" result="effect1_dropShadow_676_2158"/>
<feBlend mode="normal" in="SourceGraphic" in2="effect1_dropShadow_676_2158" result="shape"/>
</filter>
<linearGradient id="paint0_linear_676_2158" x1="29.3346" y1="0.656854" x2="11.6569" y2="18.3345" gradientUnits="userSpaceOnUse">
<stop stop-color="#ACF2FF"/>
<stop offset="1" stop-color="#0068B2"/>
</linearGradient>
<clipPath id="clip0_676_2158">
<rect width="32" height="32" rx="12" fill="white"/>
</clipPath>
</defs>
</svg>
